<?xml version="1.0" encoding="UTF-8"?>
<svg version="1.1" xmlns="http://www.w3.org/2000/svg" width="1024" height="576">
<path d="M0 0 C337.92 0 675.84 0 1024 0 C1024 190.08 1024 380.16 1024 576 C686.08 576 348.16 576 0 576 C0 385.92 0 195.84 0 0 Z " fill="#FEFEFE" transform="translate(0,0)"/>
<path d="M0 0 C42.61702128 0 42.61702128 0 55 9 C56.06347656 9.77150391 56.06347656 9.77150391 57.1484375 10.55859375 C65.32934859 17.09391927 71.40171455 26.58208481 73 37 C74.03389914 52.55851449 71.45382786 65.48693342 61.375 77.8125 C53.50838977 86.06869474 44.92012658 89.02178366 34 92 C22.78 92 11.56 92 0 92 C0 61.64 0 31.28 0 0 Z " fill="#FF3232" transform="translate(161,226)"/>
<path d="M0 0 C21 0 21 0 25.1875 4 C26.16527521 5.98062159 27.09815176 7.98367264 28 10 C29.51272773 12.56604494 31.13924539 15.05718766 32.75 17.5625 C33.60883445 18.94403178 34.4655671 20.32687212 35.3203125 21.7109375 C38.43964099 26.72898768 41.657393 31.68193866 44.89355469 36.62524414 C49.05788174 43.01337306 52.99743821 49.49583709 57 56 C57.33 37.52 57.66 19.04 58 0 C64.93 0 71.86 0 79 0 C79 30.36 79 60.72 79 92 C71.74 92 64.48 92 57 92 C51.03011342 84.85001956 51.03011342 84.85001956 49.48046875 81.16796875 C46.58077368 74.8460099 42.7424187 69.18119575 38.9375 63.375 C37.63196253 61.34252657 36.32855364 59.3086842 35.02734375 57.2734375 C30.68783504 50.51373722 26.34376418 43.75696651 22 37 C21.67 55.15 21.34 73.3 21 92 C14.07 92 7.14 92 0 92 C0 61.64 0 31.28 0 0 Z " fill="#FF3333" transform="translate(69,226)"/>
<path d="M0 0 C21 0 21 0 25.1875 4 C26.16760023 5.9794721 27.10107864 7.98236608 28 10 C29.45297537 12.37633567 30.93032061 14.72156819 32.4375 17.0625 C33.28323059 18.42325019 34.1268523 19.78531257 34.96875 21.1484375 C39.42092201 28.30809428 43.99748326 35.38944834 48.55444336 42.48266602 C49.21581299 43.51319092 49.87718262 44.54371582 50.55859375 45.60546875 C51.14954834 46.52481201 51.74050293 47.44415527 52.34936523 48.39135742 C53.93875315 50.90320624 55.47068022 53.4511337 57 56 C57.33 37.52 57.66 19.04 58 0 C64.93 0 71.86 0 79 0 C79 30.36 79 60.72 79 92 C57 92 57 92 52.02734375 87.453125 C50.39257812 84.48120117 50.39257812 84.48120117 48.9375 81.25 C47.76190114 79.0414832 46.58346579 76.83447417 45.40234375 74.62890625 C44.84144043 73.51531738 44.28053711 72.40172852 43.70263672 71.25439453 C41.13206592 66.34104369 38.08960984 61.78544797 35 57.1875 C30.60423882 50.49655713 26.29871103 43.75511733 22 37 C21.67 55.15 21.34 73.3 21 92 C14.07 92 7.14 92 0 92 C0 61.64 0 31.28 0 0 Z " fill="#020202" transform="translate(678,226)"/>
<path d="M0 0 C48.03550839 0 48.03550839 0 57.33984375 9.11328125 C63.16392762 15.73218128 63.8444422 22.46310752 63.44140625 31.08203125 C62.46482135 39.75030253 58.57001014 45.1466647 52.0625 50.72265625 C49.71106892 52.17894027 47.72188444 52.617235 45 53 C48.58401577 57.94012984 52.35537804 62.66700441 56.3125 67.3125 C59.86053708 71.47816506 63.39530705 75.65173326 66.875 79.875 C67.55304688 80.69742188 68.23109375 81.51984375 68.9296875 82.3671875 C71.39838445 85.50662475 73.69846214 88.73614666 76 92 C53.63465456 94.83136271 53.63465456 94.83136271 46.55664062 90.50732422 C42.33700257 86.48144505 39.44719775 81.59636608 36.5546875 76.57177734 C33.93376873 72.23623113 30.75526854 68.34866712 27.625 64.375 C25.76875 61.94125 23.9125 59.5075 22 57 C21.67 68.55 21.34 80.1 21 92 C14.07 92 7.14 92 0 92 C0 61.64 0 31.28 0 0 Z " fill="#030303" transform="translate(533,226)"/>
<path d="M0 0 C6.6 0 13.2 0 20 0 C23.73954879 7.24113008 26.95507531 14.55243947 29.94921875 22.12890625 C30.63550102 23.84991798 30.63550102 23.84991798 31.33564758 25.60569763 C32.79035911 29.25635123 34.23907446 32.90934847 35.6875 36.5625 C36.63956867 38.95523943 37.59203966 41.34781881 38.54492188 43.74023438 C39.96232155 47.29942169 41.37880184 50.85895727 42.79196167 54.41983032 C45.15738936 60.3800073 47.53465853 66.3349672 49.93603516 72.28076172 C50.63524834 74.01542946 50.63524834 74.01542946 51.34858704 75.78514099 C52.23618185 77.98523995 53.126517 80.18423589 54.01994324 82.38197327 C54.41272964 83.3567009 54.80551605 84.33142853 55.21020508 85.33569336 C55.5571492 86.19158554 55.90409332 87.04747772 56.2615509 87.92930603 C57 90 57 90 57 92 C49.74 92 42.48 92 35 92 C30.25 80.625 30.25 80.625 28 75 C16.12 74.67 4.24 74.34 -8 74 C-8.33 75.98 -8.66 77.96 -9 80 C-10.51201576 84.0750064 -12.27062086 88.00912507 -14 92 C-21.26 92 -28.52 92 -36 92 C-34.16642136 85.8880712 -32.45250373 80.33291178 -30.05859375 74.51171875 C-29.77843414 73.82597778 -29.49827454 73.14023682 -29.20962524 72.43371582 C-28.60478634 70.95438196 -27.99792088 69.47587531 -27.38919067 67.99813843 C-25.72641018 63.96102361 -24.07915714 59.91756714 -22.4296875 55.875 C-22.07896683 55.01658005 -21.72824615 54.1581601 -21.36689758 53.27372742 C-16.87529884 42.26780531 -12.47108623 31.22686784 -8.0625 20.1875 C-7.25514976 18.1669017 -6.44777724 16.14631229 -5.64038086 14.12573242 C-3.75919502 9.41757661 -1.87963497 4.70877625 0 0 Z " fill="#030303" transform="translate(892,226)"/>
<path d="M0 0 C17.49 0 34.98 0 53 0 C53 5.94 53 11.88 53 18 C42.44 18 31.88 18 21 18 C21 24.27 21 30.54 21 37 C30.9 37 40.8 37 51 37 C51 42.94 51 48.88 51 55 C41.1 55 31.2 55 21 55 C21 61.27 21 67.54 21 74 C31.56 74 42.12 74 53 74 C53 79.94 53 85.88 53 92 C35.51 92 18.02 92 0 92 C0 61.64 0 31.28 0 0 Z " fill="#010101" transform="translate(613,226)"/>
<path d="M0 0 C17.16 0 34.32 0 52 0 C52 5.94 52 11.88 52 18 C41.44 18 30.88 18 20 18 C20 24.27 20 30.54 20 37 C30.23 37 40.46 37 51 37 C51 42.94 51 48.88 51 55 C41.1 55 31.2 55 21 55 C21 60.94 21 66.88 21 73 C31.23 73 41.46 73 52 73 C52 79.27 52 85.54 52 92 C34.84 92 17.68 92 0 92 C0 61.64 0 31.28 0 0 Z " fill="#FF3232" transform="translate(278,226)"/>
<path d="M0 0 C17.16 0 34.32 0 52 0 C52 5.94 52 11.88 52 18 C41.44 18 30.88 18 20 18 C20 24.27 20 30.54 20 37 C30.23 37 40.46 37 51 37 C51 42.94 51 48.88 51 55 C40.77 55 30.54 55 20 55 C20 61.27 20 67.54 20 74 C30.56 74 41.12 74 52 74 C52 79.94 52 85.88 52 92 C34.84 92 17.68 92 0 92 C0 61.64 0 31.28 0 0 Z " fill="#000000" transform="translate(469,226)"/>
<path d="M0 0 C17.49 0 34.98 0 53 0 C53 5.94 53 11.88 53 18 C42.44 18 31.88 18 21 18 C21 24.27 21 30.54 21 37 C30.9 37 40.8 37 51 37 C51 42.94 51 48.88 51 55 C41.1 55 31.2 55 21 55 C21 67.21 21 79.42 21 92 C14.07 92 7.14 92 0 92 C0 61.64 0 31.28 0 0 Z " fill="#030303" transform="translate(405,226)"/>
<path d="M0 0 C17.49 0 34.98 0 53 0 C53 5.94 53 11.88 53 18 C42.44 18 31.88 18 21 18 C21 24.27 21 30.54 21 37 C30.9 37 40.8 37 51 37 C51 42.94 51 48.88 51 55 C41.1 55 31.2 55 21 55 C21 67.21 21 79.42 21 92 C14.07 92 7.14 92 0 92 C0 61.64 0 31.28 0 0 Z " fill="#010101" transform="translate(342,226)"/>
<path d="M0 0 C21.45 0 42.9 0 65 0 C65 6.27 65 12.54 65 19 C57.74 19 50.48 19 43 19 C43 43.09 43 67.18 43 92 C36.07 92 29.14 92 22 92 C22 67.58 22 43.16 22 18 C14.74 18 7.48 18 0 18 C0 12.06 0 6.12 0 0 Z " fill="#040404" transform="translate(759,226)"/>
<path d="M0 0 C6.93 0 13.86 0 21 0 C21 24.09 21 48.18 21 73 C31.56 73 42.12 73 53 73 C53 79.27 53 85.54 53 92 C35.51 92 18.02 92 0 92 C0 61.64 0 31.28 0 0 Z " fill="#030303" transform="translate(953,226)"/>
<path d="M0 0 C6.93 0 13.86 0 21 0 C21 30.36 21 60.72 21 92 C14.07 92 7.14 92 0 92 C0 61.64 0 31.28 0 0 Z " fill="#020202" transform="translate(831,226)"/>
<path d="M0 0 C6.93 0 13.86 0 21 0 C21 30.36 21 60.72 21 92 C14.07 92 7.14 92 0 92 C0 61.64 0 31.28 0 0 Z " fill="#FF3232" transform="translate(243,226)"/>
<path d="M0 0 C6.93 0 13.86 0 21 0 C21 30.36 21 60.72 21 92 C14.07 92 7.14 92 0 92 C0 61.64 0 31.28 0 0 Z " fill="#FF3535" transform="translate(34,226)"/>
<path d="M0 0 C8.55435365 0 14.53490566 0.13807038 21.08203125 5.80078125 C28.07150599 13.37884334 29.75832484 20.89332679 29.41015625 31.04296875 C28.66200159 38.26087987 25.94795696 43.47867475 20.6875 48.4375 C13.98437197 53.54809222 8.65493828 54 0 54 C0 36.18 0 18.36 0 0 Z " fill="#FFFDFD" transform="translate(182,245)"/>
<path d="M0 0 C13.65384615 0 13.65384615 0 18.8125 4.625 C20.67759504 8.35519007 20.52624769 11.91427139 20 16 C18.6660509 19.40898103 17.45235965 20.67203925 14.5 22.8125 C11 24 11 24 0 24 C0 16.08 0 8.16 0 0 Z " fill="#F5F5F5" transform="translate(554,243)"/>
<path d="M0 0 C2.73056664 1.36528332 2.86496735 2.72553125 3.9453125 5.55078125 C4.29980469 6.47697266 4.65429688 7.40316406 5.01953125 8.35742188 C5.38433594 9.33259766 5.74914062 10.30777344 6.125 11.3125 C6.68380859 12.75786133 6.68380859 12.75786133 7.25390625 14.23242188 C10 21.48995536 10 21.48995536 10 26 C3.4 26 -3.2 26 -10 26 C-3.71428571 7.85714286 -3.71428571 7.85714286 0 0 Z " fill="#F5F5F5" transform="translate(902,255)"/>
</svg>
