<?xml version="1.0" encoding="UTF-8"?>
<svg version="1.1" xmlns="http://www.w3.org/2000/svg" width="250" height="100">
<path d="M0 0 C82.5 0 165 0 250 0 C250 33 250 66 250 100 C167.5 100 85 100 0 100 C0 67 0 34 0 0 Z " fill="#FDFDFD" transform="translate(0,0)"/>
<path d="M0 0 C1.98 0 3.96 0 6 0 C8.1171875 2.40625 8.1171875 2.40625 9.875 5.5 C10.47054687 6.5209375 11.06609375 7.541875 11.6796875 8.59375 C12.11539063 9.3878125 12.55109375 10.181875 13 11 C13.33 7.37 13.66 3.74 14 0 C21.26 0 28.52 0 36 0 C36 1.65 36 3.3 36 5 C34.35 5 32.7 5 31 5 C31 10.94 31 16.88 31 23 C29.02 23 27.04 23 25 23 C25 17.06 25 11.12 25 5 C23.35 5 21.7 5 20 5 C20 10.61 20 16.22 20 22 C18.02 22 16.04 22 14 22 C11.91796875 19.8828125 11.91796875 19.8828125 10.1875 17.125 C9.60355469 16.22007813 9.01960937 15.31515625 8.41796875 14.3828125 C7.56471322 12.94896712 6.74618464 11.49236928 6 10 C5.67 14.29 5.34 18.58 5 23 C3.35 23 1.7 23 0 23 C0 15.41 0 7.82 0 0 Z " fill="#222222" transform="translate(164,35)"/>
<path d="M0 0 C11 0 11 0 14.0625 1.8125 C16.68243724 4.77049366 17.9423725 6.37762301 18.3125 10.375 C17.97845728 14.24989559 17.36286644 15.96202887 15 19 C11 22 11 22 0 22 C0 14.74 0 7.48 0 0 Z " fill="#EC173D" transform="translate(37,35)"/>
<path d="M0 0 C1.98 0 3.96 0 6 0 C7.81896996 2.21439822 9.05036585 4.02082091 10.375 6.5 C10.72949219 7.12003906 11.08398438 7.74007812 11.44921875 8.37890625 C12.31961604 9.90798257 13.16255124 11.45263275 14 13 C14.33 8.71 14.66 4.42 15 0 C16.65 0 18.3 0 20 0 C20 7.59 20 15.18 20 23 C18.02 23 16.04 23 14 23 C11.8828125 20.375 11.8828125 20.375 10.125 17 C9.52945312 15.88625 8.93390625 14.7725 8.3203125 13.625 C7.88460938 12.75875 7.44890625 11.8925 7 11 C6.67 14.96 6.34 18.92 6 23 C4.02 23 2.04 23 0 23 C0 15.41 0 7.82 0 0 Z " fill="#ED274A" transform="translate(14,35)"/>
<path d="M0 0 C10 0 10 0 14 2 C15.14487832 6.04523674 15.42951635 8.12229269 13.5625 11.9375 C12.7890625 12.9584375 12.7890625 12.9584375 12 14 C12.825 14.94875 13.65 15.8975 14.5 16.875 C17 19.75 17 19.75 17 22 C14.3125 22.375 14.3125 22.375 11 22 C8.93601924 20.176017 7.60958947 18.27236161 6 16 C5.67 18.31 5.34 20.62 5 23 C3.35 23 1.7 23 0 23 C0 15.41 0 7.82 0 0 Z " fill="#0C0C0C" transform="translate(129,35)"/>
<path d="M0 0 C1.2065625 0.0309375 1.2065625 0.0309375 2.4375 0.0625 C3.77958754 3.16295423 5.10963754 6.26842989 6.4375 9.375 C6.8190625 10.25607422 7.200625 11.13714844 7.59375 12.04492188 C7.9546875 12.89248047 8.315625 13.74003906 8.6875 14.61328125 C9.02265625 15.39356689 9.3578125 16.17385254 9.703125 16.9777832 C10.4375 19.0625 10.4375 19.0625 10.4375 22.0625 C8.7875 22.0625 7.1375 22.0625 5.4375 22.0625 C5.1075 20.7425 4.7775 19.4225 4.4375 18.0625 C2.97802295 18.12256078 1.51970728 18.2113689 0.0625 18.3125 C-0.74960938 18.35890625 -1.56171875 18.4053125 -2.3984375 18.453125 C-4.75088927 18.8547092 -4.75088927 18.8547092 -5.8515625 21.109375 C-6.08617187 21.75390625 -6.32078125 22.3984375 -6.5625 23.0625 C-8.2125 23.0625 -9.8625 23.0625 -11.5625 23.0625 C-5.32196548 0.12980404 -5.32196548 0.12980404 0 0 Z " fill="#0B0B0B" transform="translate(219.5625,34.9375)"/>
<path d="M0 0 C4.29 0 8.58 0 13 0 C13 1.65 13 3.3 13 5 C10.36 5 7.72 5 5 5 C5 6.32 5 7.64 5 9 C7.31 9 9.62 9 12 9 C12 10.32 12 11.64 12 13 C9.69 13 7.38 13 5 13 C5 14.65 5 16.3 5 18 C7.64 18 10.28 18 13 18 C13 19.65 13 21.3 13 23 C8.71 23 4.42 23 0 23 C0 15.41 0 7.82 0 0 Z " fill="#101010" transform="translate(113,35)"/>
<path d="M0 0 C4.29 0 8.58 0 13 0 C13 1.65 13 3.3 13 5 C10.36 5 7.72 5 5 5 C5 6.32 5 7.64 5 9 C7.31 9 9.62 9 12 9 C12 10.32 12 11.64 12 13 C9.69 13 7.38 13 5 13 C5 14.65 5 16.3 5 18 C7.64 18 10.28 18 13 18 C13 19.65 13 21.3 13 23 C8.71 23 4.42 23 0 23 C0 15.41 0 7.82 0 0 Z " fill="#ED1F44" transform="translate(66,35)"/>
<path d="M0 0 C4.29 0 8.58 0 13 0 C13 1.32 13 2.64 13 4 C10.36 4 7.72 4 5 4 C5 5.65 5 7.3 5 9 C7.64 9 10.28 9 13 9 C13 10.32 13 11.64 13 13 C10.36 13 7.72 13 5 13 C5 14.65 5 16.3 5 18 C7.64 18 10.28 18 13 18 C13 19.65 13 21.3 13 23 C8.71 23 4.42 23 0 23 C0 15.41 0 7.82 0 0 Z " fill="#0F0F0F" transform="translate(148,35)"/>
<path d="M0 0 C4.29 0 8.58 0 13 0 C13 1.65 13 3.3 13 5 C10.36 5 7.72 5 5 5 C5 6.32 5 7.64 5 9 C7.31 9 9.62 9 12 9 C12 10.65 12 12.3 12 14 C9.69 14 7.38 14 5 14 C5 16.97 5 19.94 5 23 C3.35 23 1.7 23 0 23 C0 15.41 0 7.82 0 0 Z " fill="#141414" transform="translate(82,35)"/>
<path d="M0 0 C4.29 0 8.58 0 13 0 C13 1.32 13 2.64 13 4 C10.36 4 7.72 4 5 4 C5 5.65 5 7.3 5 9 C7.31 9 9.62 9 12 9 C12 10.32 12 11.64 12 13 C9.69 13 7.38 13 5 13 C5 16.3 5 19.6 5 23 C3.35 23 1.7 23 0 23 C0 15.41 0 7.82 0 0 Z " fill="#0C0C0C" transform="translate(97,35)"/>
<path d="M0 0 C1.65 0 3.3 0 5 0 C5 5.94 5 11.88 5 18 C7.64 18 10.28 18 13 18 C13 19.65 13 21.3 13 23 C8.71 23 4.42 23 0 23 C0 15.41 0 7.82 0 0 Z " fill="#101010" transform="translate(232,35)"/>
<path d="M0 0 C5.28 0 10.56 0 16 0 C16 1.32 16 2.64 16 4 C14.02 4 12.04 4 10 4 C10 9.94 10 15.88 10 22 C8.68 22 7.36 22 6 22 C6 16.06 6 10.12 6 4 C4.02 4 2.04 4 0 4 C0 2.68 0 1.36 0 0 Z " fill="#010101" transform="translate(184,35)"/>
<path d="M0 0 C1.65 0 3.3 0 5 0 C5 7.59 5 15.18 5 23 C3.35 23 1.7 23 0 23 C0 15.41 0 7.82 0 0 Z " fill="#ED2145" transform="translate(57,35)"/>
<path d="M0 0 C1.65 0 3.3 0 5 0 C5 7.26 5 14.52 5 22 C3.35 22 1.7 22 0 22 C0 14.74 0 7.48 0 0 Z " fill="#000000" transform="translate(202,35)"/>
<path d="M0 0 C1.65 0 3.3 0 5 0 C5 7.26 5 14.52 5 22 C3.35 22 1.7 22 0 22 C0 14.74 0 7.48 0 0 Z " fill="#EC1037" transform="translate(6,35)"/>
<path d="M0 0 C2.97 0.495 2.97 0.495 6 1 C7.54163175 4.0832635 7.29747535 6.60878099 7 10 C5.1875 11.9375 5.1875 11.9375 3 13 C2.01 13 1.02 13 0 13 C0 8.71 0 4.42 0 0 Z " fill="#FDF2F4" transform="translate(42,40)"/>
<path d="M0 0 C1.32 0.33 2.64 0.66 4 1 C4 2.32 4 3.64 4 5 C2.68 5.33 1.36 5.66 0 6 C0 4.02 0 2.04 0 0 Z " fill="#EDEDED" transform="translate(134,39)"/>
<path d="M0 0 C1.74627478 2.61941217 2.38722388 4.03824877 3 7 C1.35 7 -0.3 7 -2 7 C-1.125 2.25 -1.125 2.25 0 0 Z " fill="#C1C1C1" transform="translate(219,42)"/>
</svg>
